<svg width="158" height="39" viewBox="0 0 158 39" fill="none" xmlns="http://www.w3.org/2000/svg">
<path d="M43.5912 32.7052C42.8119 32.7052 42.5432 32.7227 42.4916 32.7227C42.4085 32.7227 42.396 32.7144 42.396 32.6397V31.8016C42.396 31.7236 42.4043 31.7186 42.4916 31.7186C42.5432 31.7186 42.8119 31.736 43.5912 31.736H48.8135C49.5936 31.736 49.8614 31.7186 49.9138 31.7186C49.997 31.7186 50.0095 31.7269 50.0095 31.8016V32.6397C50.0095 32.7177 50.0012 32.7227 49.9138 32.7227C49.8623 32.7227 49.5936 32.7052 48.8135 32.7052H43.5912Z" fill="black"/>
<path d="M59.623 35.9107C59.5539 36.0584 59.5273 36.1181 59.4674 36.1181C59.4242 36.1181 59.3726 36.0833 59.2687 36.0144C57.7541 35.0824 56.6588 33.6029 56.2113 31.8846C56.0046 32.7536 55.6192 33.5702 55.0794 34.2827C54.5396 34.9953 53.8573 35.5881 53.0757 36.0235C53.0153 36.064 52.9475 36.0922 52.8761 36.1065C52.8154 36.1065 52.7805 36.0459 52.7031 35.8999C52.5692 35.6808 52.4007 35.4846 52.2041 35.3191C53.2629 34.8201 54.1488 34.0178 54.7487 33.0144C55.3487 32.0111 55.6355 30.8522 55.5725 29.6856C55.5642 29.3056 55.5551 28.9388 55.5118 28.5621C55.8503 28.5795 56.2662 28.6227 56.5772 28.6658C56.6895 28.6833 56.7436 28.7347 56.7436 28.8044C56.7397 28.8836 56.7105 28.9594 56.6604 29.021C56.5987 29.2043 56.5752 29.3983 56.5914 29.591C56.5831 29.6948 56.5831 29.7985 56.5831 29.9022C56.6737 31.016 57.0453 32.0887 57.6632 33.0207C58.281 33.9527 59.1252 34.7137 60.117 35.2328C59.9129 35.4273 59.7455 35.657 59.623 35.9107Z" fill="black"/>
<path d="M68.2936 31.4174C68.3409 31.8162 68.4131 32.2117 68.5099 32.6015C68.7234 32.439 68.9262 32.263 69.117 32.0746C69.2316 31.9572 69.3357 31.83 69.4281 31.6946C69.6302 31.8385 69.8162 32.0037 69.9828 32.1874C70.0042 32.2056 70.0214 32.2281 70.0333 32.2534C70.0452 32.2788 70.0515 32.3063 70.0519 32.3343C70.0519 32.3949 70.0086 32.438 69.9304 32.4638C69.8103 32.5176 69.7016 32.594 69.6102 32.6886C69.3443 32.9327 69.0638 33.1605 68.7702 33.3707C69.0723 34.1066 69.5592 34.7524 70.1841 35.246C69.9962 35.4342 69.8512 35.6607 69.7591 35.9099C69.7075 36.0227 69.6818 36.0758 69.6385 36.0758C69.5953 36.0758 69.5603 36.041 69.4913 35.9721C68.4254 34.8797 67.768 33.4551 67.6291 31.9369L67.2823 32.17V35.0643C67.2823 35.7647 67.2989 36.1016 67.2989 36.143C67.2989 36.226 67.2906 36.2385 67.2041 36.2385H66.4855C66.4023 36.2385 66.3898 36.2302 66.3898 36.143C66.3898 36.0916 66.4073 35.763 66.4073 35.0643V32.6878L65.9831 32.8953C65.9215 32.9281 65.8539 32.9484 65.7844 32.955C65.7153 32.955 65.6887 32.8953 65.6363 32.731C65.5741 32.5666 65.4834 32.4144 65.3685 32.2812V32.3766C65.4312 33.3967 65.3494 34.4205 65.1256 35.4178C65.0831 35.6201 64.9682 35.7999 64.8024 35.9239C64.6367 36.0479 64.4314 36.1075 64.2249 36.0916C64.0951 36.0916 64.0087 36.0916 63.8348 36.0825C63.6959 36.0742 63.6793 36.0567 63.6535 35.8402C63.6221 35.612 63.5547 35.3902 63.4539 35.183C63.6474 35.2242 63.8449 35.2445 64.0428 35.2436C64.2923 35.2436 64.3463 35.1481 64.4237 34.7507C64.5339 33.8854 64.5772 33.0129 64.5534 32.141H63.7833C63.7788 33.4674 63.4487 34.7725 62.8218 35.9422C62.7611 36.046 62.7095 36.0899 62.6663 36.0899C62.623 36.0899 62.5715 36.046 62.5191 35.9514C62.3966 35.736 62.2317 35.5478 62.0342 35.3979C62.9175 34.1623 62.9956 32.6505 63.0214 30.4125C62.5274 30.4208 62.3461 30.43 62.3028 30.43C62.2196 30.43 62.2072 30.4217 62.2072 30.3262V29.7039C62.2072 29.6209 62.2155 29.6085 62.3028 29.6085C62.3544 29.6085 62.5798 29.6259 63.2643 29.6259H63.5678V29.1853C63.5791 28.9045 63.5588 28.6234 63.5071 28.3472C63.8273 28.3555 64.096 28.3646 64.4162 28.3986C64.4994 28.4069 64.5634 28.4335 64.5634 28.4816C64.5597 28.5402 64.542 28.5971 64.5118 28.6476C64.4598 28.8212 64.442 29.0032 64.4594 29.1836V29.6242H64.5634C65.2562 29.6242 65.4783 29.6068 65.5332 29.6068C65.6164 29.6068 65.6288 29.6151 65.6288 29.7022V30.3246C65.6288 30.42 65.6205 30.4283 65.5332 30.4283C65.4816 30.4283 65.2562 30.4109 64.5634 30.4109H63.8448C63.8357 30.7428 63.8357 31.0589 63.819 31.3527H64.7713C65.1439 31.3527 65.2388 31.3353 65.2903 31.3353C65.3735 31.3353 65.3943 31.3527 65.3943 31.439C65.3777 31.6721 65.3776 31.9053 65.3685 32.2074C66.3178 31.8576 67.191 31.3294 67.941 30.6515C68.082 30.5168 68.2067 30.3661 68.3128 30.2026H66.7808C66.5956 30.5575 66.3726 30.8914 66.1154 31.1983C66.0322 31.3021 65.9773 31.3535 65.9249 31.3535C65.8725 31.3535 65.821 31.3021 65.717 31.2058C65.5727 31.0706 65.4093 30.9571 65.2321 30.8689C65.8185 30.3173 66.2461 29.619 66.4705 28.8467C66.5272 28.6702 66.5621 28.4874 66.5745 28.3024C66.8781 28.3455 67.1292 28.3978 67.3804 28.4493C67.4752 28.475 67.5359 28.5181 67.5359 28.5704C67.5307 28.6209 67.5059 28.6673 67.4669 28.6999C67.3854 28.7875 67.3281 28.8947 67.3006 29.011L67.1534 29.4176H69.0064C69.6992 29.4176 69.9329 29.4002 69.9762 29.4002C70.0594 29.4002 70.071 29.4085 70.071 29.4948V30.1254C70.071 30.2084 70.0627 30.2209 69.9762 30.2209C69.9321 30.2209 69.6992 30.2034 69.0064 30.2034H68.3568C68.5775 30.3355 68.7887 30.4828 68.9889 30.644C69.0131 30.6602 69.0329 30.6821 69.0465 30.7077C69.0602 30.7333 69.0672 30.7619 69.0671 30.7909C69.0671 30.8258 69.0239 30.8739 68.9374 30.9038C68.789 30.9787 68.6543 31.078 68.539 31.1975L68.2936 31.4174Z" fill="black"/>
<path d="M76.5582 30.303C76.4252 31.5991 76.0589 32.8607 75.477 34.0271C75.3529 34.3164 75.1481 34.5641 74.887 34.7406C74.6259 34.9172 74.3194 35.0151 74.004 35.0228C73.2422 35.0228 72.4712 34.2105 72.4712 32.8023C72.4776 32.382 72.5673 31.967 72.7354 31.5815C72.9034 31.1959 73.1463 30.8474 73.4501 30.5561C73.818 30.1888 74.2577 29.901 74.7419 29.7107C75.2262 29.5204 75.7445 29.4316 76.2646 29.45C78.3439 29.45 79.564 30.7287 79.564 32.448C79.564 34.0553 78.6541 35.066 76.8967 35.5929C76.7146 35.6443 76.6364 35.6103 76.5241 35.4377C76.3654 35.2132 76.1582 35.0272 75.9178 34.8934C77.3816 34.5474 78.5335 33.9425 78.5335 32.3094C78.5391 32.0505 78.4933 31.793 78.3987 31.5517C78.3041 31.3105 78.1626 31.0904 77.9823 30.904C77.8019 30.7177 77.5864 30.5687 77.3482 30.4659C77.1099 30.363 76.8536 30.3082 76.594 30.3047L76.5582 30.303ZM74.0722 31.1411C73.6625 31.5762 73.4231 32.1436 73.3977 32.7401C73.3977 33.535 73.7179 33.9756 73.9866 33.9756C74.2111 33.9756 74.4024 33.8636 74.6361 33.4487C75.109 32.4746 75.418 31.4295 75.551 30.3553C74.9849 30.4484 74.4652 30.724 74.0722 31.1411Z" fill="black"/>
<path d="M87.5841 30.1304C87.8264 30.1597 88.0723 30.133 88.3027 30.0524C88.3386 30.0281 88.38 30.0132 88.4233 30.0092C88.4798 30.0118 88.533 30.0366 88.5713 30.0781C88.8052 30.2836 89.0142 30.5156 89.1942 30.7693C89.2349 30.8248 89.2588 30.8908 89.2633 30.9594C89.262 30.9967 89.251 31.033 89.2313 31.0647C89.2116 31.0964 89.1839 31.1225 89.151 31.1403C89.0014 31.2365 88.8621 31.3477 88.7351 31.4722C88.0006 32.2848 87.2232 33.0578 86.4063 33.7881C86.6781 34.0599 86.9326 34.3484 87.1682 34.6519C87.2041 34.6859 87.2258 34.7321 87.2289 34.7814C87.2222 34.836 87.1941 34.8858 87.1507 34.9199C86.9734 35.1008 86.7854 35.2709 86.5877 35.4294C86.5549 35.454 86.5161 35.4692 86.4754 35.4734C86.4405 35.4734 86.4064 35.4468 86.3714 35.3954C85.5842 34.3663 84.647 33.4607 83.591 32.7085C83.764 32.5426 84.0584 32.2679 84.2148 32.1277C84.2418 32.1043 84.275 32.0893 84.3104 32.0846C84.3553 32.0937 84.3969 32.1146 84.431 32.1451C84.8594 32.4438 85.2701 32.7668 85.6611 33.1127C86.3774 32.4833 87.046 31.8018 87.6614 31.0739L84.0152 31.0913C83.5162 31.0913 82.8716 31.1087 82.4042 31.1519C82.2919 31.1519 82.2653 31.1004 82.2486 30.9967C82.1965 30.6911 82.1621 30.3827 82.1455 30.0731C82.7344 30.1337 83.4355 30.1337 84.0335 30.1337L87.5841 30.1304Z" fill="black"/>
<path d="M92.5065 31.1851C92.5248 31.1729 92.5455 31.1647 92.5672 31.1611C92.5889 31.1575 92.6111 31.1586 92.6323 31.1643C92.6536 31.1699 92.6734 31.18 92.6904 31.1939C92.7074 31.2078 92.7213 31.2252 92.7311 31.2448C93.0478 31.6282 93.3005 32.06 93.4796 32.5235C93.496 32.5652 93.5077 32.6087 93.5145 32.653C93.5145 32.7044 93.4796 32.731 93.4106 32.7741C93.234 32.8789 93.0487 32.9683 92.8567 33.0413C92.7352 33.0853 92.6837 33.0413 92.6396 32.9202C92.4439 32.4166 92.1694 31.9471 91.8262 31.5294C92.1164 31.366 92.3244 31.2714 92.5065 31.1851ZM97.2606 31.2971C97.3296 31.3485 97.3729 31.3925 97.3729 31.4448C97.3729 31.4971 97.3471 31.5394 97.2772 31.6C97.1598 31.7264 97.0713 31.8767 97.0177 32.0406C96.68 32.8585 96.2405 33.6307 95.7094 34.3391C95.2187 34.996 94.6149 35.5607 93.9262 36.007C93.8685 36.0593 93.7958 36.0924 93.7183 36.1016C93.666 36.1006 93.6161 36.0791 93.5794 36.0418C93.3626 35.8702 93.1117 35.7466 92.8434 35.6792C93.6411 35.2125 94.346 34.6032 94.9226 33.8819C95.4037 33.2428 95.7967 32.5424 96.0912 31.7991C96.2036 31.5067 96.2709 31.1989 96.2908 30.8863C96.6302 30.9816 96.9561 31.1196 97.2606 31.2971ZM94.2556 30.7702C94.2744 30.7577 94.2957 30.7495 94.318 30.7462C94.3403 30.743 94.3631 30.7447 94.3847 30.7513C94.4062 30.7579 94.4261 30.7692 94.4427 30.7843C94.4594 30.7995 94.4725 30.8182 94.481 30.839C94.7621 31.2256 94.9862 31.6503 95.1464 32.1003C95.1896 32.2298 95.173 32.2729 95.0632 32.3335C94.8725 32.441 94.6724 32.5307 94.4652 32.6015C94.3695 32.6364 94.3354 32.5932 94.2922 32.4721C94.1125 31.9809 93.8678 31.516 93.5644 31.0896C93.9088 30.9253 94.1084 30.8299 94.2556 30.7702Z" fill="black"/>
<path d="M103.202 31.634C103.202 31.3577 103.194 31.0117 103.185 30.7611C103.176 30.628 103.161 30.4954 103.141 30.3636C102.463 30.4918 101.777 30.5841 101.089 30.6399C100.959 30.6573 100.907 30.5453 100.872 30.4499C100.758 30.2289 100.609 30.0275 100.431 29.8533C101.295 29.8148 102.156 29.708 103.003 29.5338C103.488 29.4429 103.965 29.3189 104.432 29.1629C104.702 29.0771 104.956 28.9454 105.181 28.7737C105.439 28.9486 105.677 29.1515 105.891 29.3786C105.926 29.4091 105.953 29.4463 105.973 29.488C105.992 29.5297 106.002 29.575 106.003 29.6209C106.003 29.7164 105.92 29.7329 105.779 29.7421C105.597 29.7678 105.414 29.8458 105.232 29.8889C104.704 30.0358 104.176 30.1653 103.665 30.269C103.856 30.2853 104.045 30.3229 104.228 30.381C104.258 30.3847 104.285 30.3989 104.306 30.4211C104.327 30.4433 104.339 30.472 104.34 30.5022C104.332 30.5538 104.314 30.6036 104.288 30.649C104.25 30.7424 104.23 30.842 104.228 30.9428C104.219 31.1328 104.219 31.3311 104.219 31.6249H105.292C105.838 31.6249 106.574 31.5817 106.964 31.5651C107.047 31.5651 107.047 31.6083 107.06 31.7029C107.072 31.9331 107.072 32.1638 107.06 32.3941C107.051 32.5152 107.051 32.5492 106.947 32.5492C106.387 32.5313 105.827 32.5227 105.267 32.5235H104.202C104.171 33.1248 104.024 33.7144 103.769 34.2603C103.46 34.9096 102.985 35.4667 102.392 35.8759C102.35 35.9103 102.299 35.9314 102.245 35.9364C102.189 35.9326 102.135 35.9149 102.088 35.885C101.8 35.7328 101.492 35.6211 101.174 35.5531C101.863 35.1957 102.428 34.6381 102.793 33.9541C103.019 33.508 103.149 33.0195 103.174 32.5202H101.633C101.321 32.5202 100.68 32.5202 100.255 32.5551C100.143 32.5633 100.116 32.4945 100.089 32.3559C100.034 32.0973 100.006 31.8337 100.006 31.5693C100.62 31.6207 101.262 31.6298 101.686 31.6298L103.202 31.634Z" fill="black"/>
<path d="M110.055 29.5388C110.069 29.5189 110.087 29.5025 110.108 29.4905C110.129 29.4786 110.152 29.4716 110.176 29.4699C110.217 29.4741 110.256 29.489 110.289 29.513C110.885 29.8577 111.44 30.2692 111.943 30.7395C111.995 30.7909 112.021 30.8224 112.021 30.8606C112.017 30.9031 111.999 30.9429 111.969 30.9735C111.839 31.1461 111.553 31.4921 111.432 31.6215C111.388 31.6655 111.363 31.6904 111.328 31.6904C111.293 31.6904 111.259 31.6647 111.215 31.6215C110.687 31.0803 110.094 30.6065 109.449 30.2109C109.639 29.9827 109.89 29.7155 110.055 29.5388ZM110.809 34.0926C111.7 33.655 112.537 33.1156 113.304 32.4853C114.193 31.807 114.99 31.0172 115.677 30.1354C115.712 30.4819 115.793 30.8221 115.919 31.1469C115.945 31.1987 115.96 31.2552 115.963 31.3129C115.963 31.3909 115.919 31.4606 115.824 31.5717C115.22 32.2444 114.553 32.8577 113.832 33.4031C113.009 34.0403 112.133 34.6073 111.215 35.0983C111.006 35.2076 110.811 35.341 110.633 35.4958C110.593 35.5423 110.538 35.572 110.477 35.5788C110.447 35.5737 110.419 35.5627 110.393 35.5465C110.368 35.5302 110.346 35.509 110.33 35.4842C110.067 35.188 109.835 34.8667 109.637 34.525C110.043 34.4293 110.437 34.2852 110.809 34.096V34.0926Z" fill="black"/>
<path d="M123.056 30.1213C123.207 30.1282 123.357 30.0922 123.489 30.0176C123.521 29.9933 123.561 29.981 123.601 29.9827C123.652 29.9854 123.7 30.0034 123.74 30.0341C123.951 30.1708 124.148 30.3269 124.329 30.5005C124.361 30.5239 124.387 30.5538 124.407 30.5881C124.426 30.6224 124.438 30.6604 124.441 30.6996C124.438 30.7355 124.427 30.7702 124.409 30.8015C124.391 30.8327 124.367 30.8597 124.337 30.8805C124.215 30.9813 124.117 31.1084 124.051 31.2523C123.601 32.2143 123.025 33.1121 122.336 33.9217C121.576 34.7708 120.687 35.4967 119.703 36.0733C119.663 36.102 119.614 36.1172 119.564 36.1165C119.488 36.1107 119.418 36.077 119.365 36.0219C119.121 35.8353 118.841 35.7001 118.543 35.6244C119.631 35.0719 120.608 34.3249 121.426 33.4205C122.094 32.6977 122.636 31.8683 123.028 30.9668L120.933 31.0274C120.448 31.6709 119.9 32.2644 119.296 32.799C119.251 32.8536 119.185 32.8879 119.114 32.8944C119.066 32.8927 119.021 32.8745 118.985 32.843C118.734 32.6661 118.452 32.5398 118.153 32.4712C119.069 31.7535 119.857 30.8857 120.482 29.9047C120.718 29.5483 120.891 29.1535 120.992 28.738C121.349 28.8459 121.69 28.9999 122.006 29.1961C122.031 29.2118 122.052 29.2334 122.066 29.2591C122.081 29.2847 122.089 29.3135 122.089 29.3429C122.088 29.3736 122.079 29.4035 122.062 29.4293C122.045 29.4551 122.022 29.476 121.994 29.4898C121.909 29.5546 121.836 29.6335 121.777 29.723C121.683 29.8699 121.596 29.9993 121.492 30.1553L123.056 30.1213ZM124.129 28.9554C124.173 28.9206 124.207 28.9289 124.259 28.9729C124.58 29.2363 124.858 29.5482 125.082 29.8972C125.091 29.9072 125.098 29.9193 125.102 29.9325C125.106 29.9456 125.107 29.9596 125.104 29.9731C125.102 29.9866 125.096 29.9993 125.088 30.0102C125.079 30.0211 125.068 30.0299 125.056 30.0358L124.692 30.3038C124.681 30.3143 124.669 30.3221 124.655 30.3266C124.641 30.3311 124.626 30.3322 124.611 30.3296C124.597 30.3271 124.583 30.3211 124.572 30.3121C124.56 30.3031 124.551 30.2915 124.545 30.2781C124.307 29.9006 124.012 29.5624 123.67 29.2757L124.129 28.9554ZM124.9 28.3937C124.952 28.3596 124.978 28.3679 125.029 28.4111C125.352 28.6595 125.63 28.9605 125.852 29.3015C125.862 29.3126 125.87 29.3259 125.874 29.3405C125.879 29.355 125.88 29.3704 125.877 29.3853C125.875 29.4003 125.869 29.4145 125.86 29.4269C125.851 29.4392 125.84 29.4494 125.826 29.4566L125.479 29.7238C125.469 29.7349 125.457 29.7433 125.443 29.7481C125.428 29.753 125.413 29.7542 125.399 29.7516C125.384 29.749 125.37 29.7428 125.358 29.7334C125.347 29.7241 125.338 29.7119 125.332 29.6981C125.099 29.3218 124.806 28.9855 124.466 28.7023L124.9 28.3937Z" fill="black"/>
<path d="M133.372 30.7187C133.796 30.7187 134.282 30.7096 134.68 30.6922C134.784 30.6839 134.792 30.7362 134.801 30.8307C134.818 31.0581 134.818 31.2863 134.801 31.5137C134.792 31.6257 134.775 31.6605 134.653 31.6522C134.359 31.6522 133.831 31.6431 133.406 31.6431H133.05C133.075 32.5739 132.845 33.4938 132.385 34.3042C131.898 35.0484 131.18 35.613 130.342 35.9115C130.266 35.9516 130.184 35.978 130.099 35.9895C130.047 35.9895 130.003 35.963 129.932 35.8941C129.735 35.6699 129.489 35.4927 129.214 35.3755C130.161 35.1845 130.998 34.6372 131.552 33.847C131.922 33.1732 132.098 32.4106 132.062 31.6431H130.218V31.9543C130.218 32.4638 130.218 32.9309 130.243 33.3882C130.252 33.4836 130.192 33.501 130.096 33.5093C129.847 33.5268 129.597 33.5268 129.348 33.5093C129.235 33.501 129.181 33.4836 129.192 33.3882C129.221 32.9163 129.235 32.4436 129.235 31.9709V31.639H128.976C128.508 31.639 127.811 31.6655 127.547 31.6821C127.478 31.6821 127.451 31.6307 127.443 31.5161C127.407 31.2381 127.387 30.9583 127.382 30.6781C127.746 30.7038 128.309 30.7212 128.976 30.7212H129.235V30.0906C129.246 29.6646 129.211 29.2387 129.131 28.8202C129.486 28.8443 129.839 28.8905 130.189 28.9587C130.283 28.9762 130.318 29.0193 130.318 29.0799C130.311 29.1429 130.294 29.2043 130.267 29.2616C130.193 29.5317 130.172 29.8135 130.206 30.0914V30.722H132.068L132.077 29.8757C132.092 29.4796 132.066 29.0831 131.999 28.6924C132.34 28.7201 132.678 28.7691 133.012 28.8393C133.134 28.8658 133.168 28.9081 133.168 28.9778C133.165 29.0311 133.154 29.0836 133.134 29.133C133.07 29.381 133.046 29.6377 133.065 29.8931V30.7137L133.372 30.7187Z" fill="black"/>
<path d="M141.063 33.9839C141.063 34.5806 141.072 35.09 141.089 35.7813C141.097 35.8933 141.054 35.9281 140.959 35.9281C140.67 35.9454 140.381 35.9454 140.093 35.9281C139.997 35.9281 139.963 35.8933 139.972 35.7896C139.98 35.1672 140.007 34.6063 140.007 34.018V32.0049C139.269 32.6338 138.471 33.1896 137.625 33.6645C137.575 33.694 137.517 33.7051 137.46 33.6957C137.403 33.6863 137.351 33.657 137.314 33.613C137.089 33.4093 136.837 33.2378 136.565 33.1035C138.313 32.2264 139.869 31.0103 141.14 29.5263C141.383 29.2712 141.568 28.9678 141.685 28.636C142.02 28.8139 142.342 29.016 142.647 29.2409C142.668 29.255 142.686 29.2744 142.698 29.2971C142.71 29.3199 142.716 29.3454 142.716 29.3711C142.712 29.4101 142.699 29.4476 142.678 29.4807C142.657 29.5137 142.628 29.5413 142.595 29.5612C142.402 29.6976 142.228 29.8573 142.075 30.0366C141.757 30.4178 141.419 30.7812 141.061 31.1253L141.063 33.9839Z" fill="black"/>
<path d="M147.657 31.1585C148.62 31.4361 149.545 31.8307 150.411 32.3335C150.506 32.3849 150.549 32.4455 150.506 32.5584C150.403 32.8189 150.279 33.0704 150.134 33.3102C150.099 33.3699 150.065 33.4047 150.022 33.4047C150.003 33.4044 149.986 33.4005 149.969 33.393C149.953 33.3856 149.938 33.3749 149.926 33.3616C149.219 32.8939 148.453 32.5219 147.648 32.2555V34.164C147.648 34.7258 147.665 35.2353 147.683 35.8576C147.692 35.9613 147.648 35.9879 147.527 35.9879C147.271 36.0051 147.013 36.0051 146.757 35.9879C146.636 35.9879 146.591 35.9613 146.591 35.8576C146.616 35.2178 146.626 34.7083 146.626 34.1557V29.9014C146.639 29.4735 146.612 29.0452 146.542 28.6227C146.906 28.6379 147.268 28.6843 147.624 28.7613C147.744 28.787 147.79 28.8384 147.79 28.9081C147.783 28.979 147.759 29.0472 147.721 29.1073C147.652 29.372 147.632 29.6469 147.661 29.9188L147.657 31.1585Z" fill="black"/>
<path d="M13.2517 3.75575e-06C11.5111 -0.00130563 9.78727 0.339772 8.17891 1.00373C6.57056 1.66768 5.10918 2.64148 3.87839 3.86942C2.6476 5.09737 1.67155 6.55536 1.00605 8.16C0.34056 9.76463 -0.00130866 11.4844 3.76445e-06 13.221C3.76445e-06 23.1361 13.2517 39 13.2517 39C13.2517 39 26.5025 23.1361 26.5025 13.221C26.5038 11.4845 26.1619 9.76477 25.4965 8.16019C24.8311 6.55561 23.8551 5.09765 22.6244 3.86972C21.3937 2.64178 19.9324 1.66797 18.3241 1.00396C16.7159 0.339962 14.9922 -0.00119651 13.2517 3.75575e-06Z" fill="#EB0303"/>
<path d="M9.78446 11.6369C10.6978 12.957 11.4395 14.3873 11.9918 15.8937C11.4171 16.1576 10.0731 16.8065 9.21307 17.3044C8.68989 15.7691 7.97331 14.3064 7.08057 12.9513L9.78446 11.6369Z" fill="white"/>
<path d="M11.7145 24.1352L11.6463 24.0331C11.1225 23.211 10.4703 22.4779 9.71423 21.8616L9.53125 21.7122L9.75249 21.6292C14.5149 19.7971 16.5991 16.7675 16.7197 11.4992V11.3332L19.7671 11.9697C20.0083 12.0228 20.1996 12.0651 20.1996 12.3132C20.1996 12.5041 20.0224 12.6318 19.822 12.6874C18.8855 19.2378 15.9446 21.9811 11.8201 24.0812L11.7145 24.1352Z" fill="white"/>
<path d="M43.8943 9.82302C43.5955 9.45594 43.1974 9.18207 42.7474 9.03389C42.3086 8.87173 41.8454 8.78531 41.3775 8.77832C41.1153 8.77965 40.854 8.80942 40.5982 8.8671C40.3343 8.92539 40.0794 9.01889 39.8405 9.14508C39.61 9.26315 39.4105 9.43371 39.2583 9.64295C39.1054 9.86492 39.0274 10.1297 39.0354 10.3989C39.0249 10.6107 39.0684 10.8217 39.1619 11.0121C39.2555 11.2025 39.396 11.3661 39.5702 11.4876C39.9848 11.768 40.4389 11.9853 40.9176 12.1323C41.4593 12.3099 42.0415 12.4877 42.6642 12.6659C43.2773 12.8399 43.8646 13.0941 44.4108 13.4218C44.9581 13.7495 45.4222 14.1988 45.7673 14.7345C46.154 15.4011 46.3394 16.165 46.3013 16.9343C46.3192 17.7253 46.1508 18.5094 45.8097 19.2237C45.4978 19.8581 45.0446 20.413 44.4848 20.8459C43.9071 21.2865 43.2493 21.6111 42.5477 21.8018C40.8443 22.2644 39.0413 22.2104 37.3687 21.6467C36.4575 21.3146 35.6238 20.8008 34.9185 20.1364L37.3903 17.4255C37.7425 17.8967 38.2051 18.2745 38.7377 18.5258C39.5255 18.9105 40.4226 19.0105 41.2761 18.8088C41.5494 18.7482 41.8121 18.6469 42.0554 18.5084C42.2777 18.3825 42.4682 18.2077 42.6126 17.9972C42.7568 17.7801 42.8308 17.5241 42.8247 17.2637C42.8323 17.0464 42.7865 16.8306 42.6913 16.635C42.596 16.4395 42.4542 16.2701 42.2783 16.1418C41.8604 15.8397 41.3984 15.6034 40.9084 15.4415C40.359 15.2495 39.7651 15.0559 39.1269 14.8607C38.5032 14.6752 37.9046 14.414 37.3446 14.0831C36.7979 13.7601 36.3301 13.3199 35.9747 12.7945C35.5835 12.1619 35.3933 11.426 35.4291 10.6835C35.4112 9.91326 35.5826 9.15034 35.9282 8.46134C36.2513 7.83739 36.7072 7.29139 37.2639 6.86151C37.8424 6.42358 38.498 6.09766 39.1968 5.90061C39.9259 5.68608 40.6822 5.57764 41.4424 5.57865C42.3177 5.57652 43.1886 5.70375 44.0265 5.95621C44.8586 6.21008 45.625 6.64224 46.2721 7.22246L43.8943 9.82302Z" fill="#131313"/>
<path d="M49.5967 13.845C49.5789 12.6739 49.7934 11.5109 50.228 10.423C50.6264 9.43731 51.2299 8.54725 51.9987 7.81161C52.774 7.08063 53.6911 6.51583 54.6935 6.15204C56.8995 5.38157 59.3025 5.38157 61.5085 6.15204C62.5111 6.51594 63.4285 7.08072 64.2041 7.81161C64.9728 8.54735 65.5763 9.43738 65.9748 10.423C66.4103 11.5108 66.626 12.6737 66.6094 13.845C66.626 15.0163 66.4104 16.1792 65.9748 17.267C65.5764 18.2527 64.9728 19.1427 64.2041 19.8784C63.4288 20.6098 62.5114 21.1746 61.5085 21.538C59.3025 22.3084 56.8995 22.3084 54.6935 21.538C53.6908 21.1746 52.7736 20.6098 51.9987 19.8784C51.2299 19.1431 50.6264 18.2533 50.228 17.2679C49.7933 16.1796 49.5788 15.0163 49.5967 13.845ZM53.2047 13.845C53.1962 14.5379 53.3131 15.2266 53.5499 15.878C53.7674 16.4732 54.1048 17.0176 54.5413 17.4778C54.9775 17.9339 55.5048 18.2934 56.0891 18.5333C57.3854 19.0371 58.8241 19.0371 60.1204 18.5333C60.7047 18.2935 61.232 17.9339 61.6682 17.4778C62.1042 17.0173 62.4415 16.4729 62.6596 15.878C63.1199 14.5653 63.1199 13.1355 62.6596 11.8228C62.4433 11.2235 62.1059 10.675 61.6682 10.2114C61.2317 9.75568 60.7045 9.39615 60.1204 9.15587C58.824 8.65216 57.3854 8.65216 56.0891 9.15587C55.505 9.39615 54.9778 9.75568 54.5413 10.2114C54.1031 10.6747 53.7656 11.2233 53.5499 11.8228C53.3151 12.471 53.1982 13.1558 53.2047 13.845Z" fill="#131313"/>
<path d="M70.6665 5.97861H74.1406V18.5084H80.578V21.7081H70.6665V5.97861Z" fill="#131313"/>
<path d="M83.206 13.845C83.1894 12.6737 83.4051 11.5108 83.8406 10.4229C84.2391 9.43738 84.8426 8.54735 85.6113 7.81161C86.3866 7.08081 87.3037 6.51603 88.306 6.15203C90.5123 5.38137 92.9156 5.38137 95.1219 6.15203C96.1242 6.51603 97.0413 7.08081 97.8166 7.81161C98.5856 8.54713 99.1891 9.43722 99.5873 10.4229C100.023 11.5108 100.239 12.6737 100.222 13.845C100.239 15.0163 100.023 16.1792 99.5873 17.267C99.1892 18.2528 98.5857 19.1429 97.8166 19.8784C97.0416 20.6096 96.1244 21.1744 95.1219 21.5379C92.9156 22.3086 90.5123 22.3086 88.306 21.5379C87.3034 21.1745 86.3862 20.6097 85.6113 19.8784C84.8425 19.1427 84.239 18.2527 83.8406 17.267C83.405 16.1792 83.1893 15.0163 83.206 13.845ZM86.8139 13.845C86.8054 14.5378 86.9224 15.2266 87.1591 15.878C87.3768 16.4731 87.7142 17.0175 88.1505 17.4778C88.5867 17.9339 89.114 18.2935 89.6983 18.5333C90.9947 19.0369 92.4332 19.0369 93.7296 18.5333C94.3139 18.2934 94.8412 17.9339 95.2774 17.4778C95.7135 17.0173 96.0508 16.4729 96.2688 15.878C96.7291 14.5652 96.7291 13.1355 96.2688 11.8228C96.0525 11.2235 95.7151 10.675 95.2774 10.2114C94.8409 9.75568 94.3137 9.39615 93.7296 9.15586C92.4332 8.65224 90.9947 8.65224 89.6983 9.15586C89.1142 9.39615 88.587 9.75568 88.1505 10.2114C87.7125 10.6747 87.3749 11.2233 87.1591 11.8228C86.9243 12.471 86.8074 13.1558 86.8139 13.845Z" fill="#131313"/>
<path d="M107.195 9.04549H102.695V5.97528H115.171V9.04549H110.671V21.7122H107.197L107.195 9.04549Z" fill="#131313"/>
<path d="M117.641 13.845C117.624 12.6737 117.84 11.5107 118.276 10.423C118.674 9.43731 119.278 8.54725 120.046 7.81161C120.822 7.08053 121.739 6.51572 122.741 6.15204C124.947 5.38157 127.35 5.38157 129.556 6.15204C130.559 6.51591 131.476 7.0807 132.251 7.81161C133.02 8.54713 133.623 9.43722 134.022 10.423C134.457 11.5107 134.673 12.6737 134.656 13.845C134.673 15.0163 134.457 16.1793 134.022 17.267C133.623 18.2528 133.02 19.1429 132.251 19.8784C131.476 20.6097 130.559 21.1746 129.556 21.538C127.35 22.3084 124.947 22.3084 122.741 21.538C121.738 21.1747 120.821 20.6099 120.046 19.8784C119.277 19.1428 118.674 18.2527 118.276 17.267C117.84 16.1793 117.624 15.0163 117.641 13.845ZM121.249 13.845C121.241 14.5378 121.358 15.2265 121.594 15.878C121.812 16.4731 122.149 17.0175 122.586 17.4778C123.022 17.9339 123.549 18.2935 124.133 18.5333C125.43 19.0371 126.868 19.0371 128.165 18.5333C128.749 18.2934 129.276 17.9339 129.713 17.4778C130.149 17.0174 130.486 16.473 130.704 15.878C131.164 14.5653 131.164 13.1355 130.704 11.8228C130.488 11.2234 130.15 10.6749 129.713 10.2114C129.276 9.75568 128.749 9.39615 128.165 9.15587C126.868 8.65216 125.43 8.65216 124.133 9.15587C123.549 9.39615 123.022 9.75568 122.586 10.2114C122.148 10.6748 121.81 11.2233 121.594 11.8228C121.36 12.471 121.243 13.1558 121.249 13.845Z" fill="#131313"/>
<path d="M138.577 5.97861H144.678C145.445 5.97495 146.211 6.05312 146.961 6.21178C147.636 6.34856 148.278 6.61244 148.854 6.98929C149.403 7.36044 149.848 7.86544 150.147 8.45635C150.488 9.17397 150.652 9.9627 150.625 10.7565C150.655 11.7706 150.35 12.7665 149.756 13.5902C149.135 14.3937 148.224 14.9239 147.217 15.0681L151.227 21.7122H147.063L143.763 15.4232H142.048V21.7122H138.573L138.577 5.97861ZM142.051 12.4899H144.101C144.412 12.4899 144.743 12.4789 145.091 12.4568C145.415 12.4399 145.735 12.3724 146.038 12.2568C146.315 12.1496 146.558 11.9692 146.74 11.7348C146.942 11.4421 147.041 11.09 147.018 10.7349C147.036 10.3989 146.95 10.0655 146.773 9.77903C146.615 9.54746 146.401 9.36005 146.15 9.23469C145.876 9.1027 145.583 9.01637 145.281 8.97912C144.964 8.93541 144.644 8.91324 144.324 8.91273H142.051V12.4899Z" fill="#131313"/>
<path d="M154.525 5.97861H158V21.7122H154.525V5.97861Z" fill="#131313"/>
</svg>
